<?xml version="1.0" encoding="utf-8"?>
<!-- Generator: Adobe Illustrator 26.1.0, SVG Export Plug-In . SVG Version: 6.00 Build 0)  -->
<svg version="1.1" id="Layer_1" xmlns="http://www.w3.org/2000/svg" xmlns:xlink="http://www.w3.org/1999/xlink" x="0px" y="0px"
	 viewBox="0 0 100 36" style="enable-background:new 0 0 100 36;" xml:space="preserve">
<style type="text/css">
	.st0{fill:#AF3238;}
	.st1{fill-rule:evenodd;clip-rule:evenodd;fill:#F58220;}
	.st2{fill-rule:evenodd;clip-rule:evenodd;fill:#B4282E;}
	.st3{fill:#B4282E;}
	.st4{opacity:0.24;fill-rule:evenodd;clip-rule:evenodd;fill:#F58220;}
	.st5{fill:#231F20;}
</style>
<g>
	<g>
		<g>
			<path class="st0" d="M1.81,28.1c0,0.09-0.02,0.17-0.05,0.25c-0.04,0.08-0.08,0.14-0.15,0.2c-0.06,0.06-0.13,0.1-0.21,0.13
				c-0.08,0.03-0.17,0.05-0.26,0.05H0v-2.4h1.16c0.08,0,0.16,0.02,0.23,0.05c0.07,0.04,0.13,0.08,0.17,0.14
				c0.05,0.06,0.08,0.12,0.11,0.2c0.03,0.07,0.04,0.15,0.04,0.22c0,0.12-0.03,0.23-0.09,0.33c-0.06,0.1-0.15,0.18-0.25,0.22
				c0.14,0.04,0.25,0.12,0.33,0.23C1.77,27.82,1.81,27.95,1.81,28.1 M0.24,26.52v0.89h0.83c0.06,0,0.11-0.01,0.16-0.04
				c0.05-0.02,0.09-0.06,0.13-0.1c0.04-0.04,0.06-0.09,0.08-0.14c0.02-0.05,0.03-0.11,0.03-0.17c0-0.06-0.01-0.12-0.03-0.17
				c-0.02-0.05-0.05-0.1-0.08-0.14c-0.04-0.04-0.08-0.07-0.12-0.09c-0.05-0.02-0.1-0.04-0.16-0.04H0.24z M1.57,28.06
				c0-0.06-0.01-0.12-0.03-0.17c-0.02-0.06-0.05-0.1-0.09-0.15c-0.04-0.04-0.08-0.08-0.13-0.1c-0.05-0.03-0.11-0.04-0.16-0.04H0.24
				v0.91h0.9c0.06,0,0.12-0.01,0.17-0.04c0.05-0.02,0.1-0.06,0.14-0.1c0.04-0.04,0.07-0.09,0.09-0.15
				C1.56,28.17,1.57,28.12,1.57,28.06z"/>
			<path class="st0" d="M2.76,28.75c-0.19,0-0.33-0.06-0.43-0.19c-0.09-0.13-0.14-0.32-0.14-0.57v-1.04h0.23v0.99
				c0,0.4,0.14,0.6,0.41,0.6c0.07,0,0.13-0.01,0.2-0.03c0.07-0.02,0.13-0.06,0.18-0.1c0.06-0.04,0.1-0.09,0.15-0.15
				c0.04-0.06,0.08-0.13,0.11-0.2v-1.11H3.7v1.47c0,0.06,0.03,0.09,0.08,0.09v0.2c-0.03,0-0.05,0.01-0.07,0.01s-0.03,0-0.04,0
				c-0.05,0-0.1-0.02-0.13-0.06c-0.03-0.04-0.05-0.08-0.05-0.15v-0.2c-0.08,0.14-0.18,0.24-0.31,0.32
				C3.05,28.71,2.91,28.75,2.76,28.75"/>
			<path class="st0" d="M4.22,26.59h0.23 M4.45,26.59H4.22v-0.34h0.23V26.59z M4.22,28.72h0.23H4.22z M4.45,28.72H4.22v-1.76h0.23
				V28.72z"/>
			<path class="st0" d="M4.96,26.25h0.23v2.07c0,0.07,0.02,0.12,0.05,0.15c0.04,0.04,0.09,0.06,0.15,0.06c0.02,0,0.05,0,0.09-0.01
				c0.03-0.01,0.07-0.02,0.09-0.03l0.04,0.19c-0.04,0.02-0.1,0.03-0.16,0.04c-0.06,0.01-0.12,0.02-0.16,0.02
				c-0.11,0-0.19-0.03-0.25-0.09C5,28.59,4.96,28.5,4.96,28.4V26.25z"/>
			<path class="st0" d="M6.6,28.75c-0.12,0-0.23-0.03-0.34-0.08c-0.1-0.05-0.19-0.12-0.27-0.2c-0.07-0.08-0.13-0.18-0.17-0.29
				c-0.04-0.11-0.06-0.22-0.06-0.34c0-0.12,0.02-0.24,0.06-0.35c0.04-0.11,0.1-0.21,0.17-0.29c0.07-0.08,0.16-0.15,0.25-0.2
				c0.1-0.05,0.21-0.07,0.32-0.07c0.15,0,0.28,0.04,0.4,0.12c0.12,0.08,0.21,0.17,0.27,0.28v-1.08h0.23v2.17
				c0,0.06,0.03,0.09,0.08,0.09v0.2c-0.03,0.01-0.06,0.01-0.08,0.01c-0.05,0-0.1-0.02-0.14-0.05c-0.04-0.03-0.06-0.08-0.06-0.13
				v-0.17c-0.07,0.12-0.16,0.21-0.28,0.27C6.85,28.72,6.73,28.75,6.6,28.75 M6.65,28.55c0.06,0,0.12-0.01,0.18-0.03
				c0.06-0.02,0.12-0.05,0.18-0.09c0.06-0.04,0.1-0.09,0.14-0.14c0.04-0.05,0.06-0.11,0.07-0.17v-0.55
				c-0.02-0.06-0.06-0.12-0.1-0.17c-0.04-0.05-0.09-0.1-0.15-0.14c-0.06-0.04-0.11-0.07-0.18-0.09c-0.06-0.02-0.13-0.03-0.19-0.03
				c-0.09,0-0.18,0.02-0.26,0.06c-0.08,0.04-0.14,0.09-0.2,0.16c-0.06,0.07-0.1,0.14-0.13,0.23c-0.03,0.09-0.04,0.17-0.04,0.26
				c0,0.09,0.02,0.19,0.05,0.27c0.03,0.09,0.08,0.16,0.14,0.22c0.06,0.06,0.13,0.12,0.21,0.15C6.47,28.53,6.56,28.55,6.65,28.55z"/>
			<path class="st0" d="M8.74,28.75c-0.13,0-0.25-0.02-0.35-0.07c-0.11-0.05-0.2-0.12-0.28-0.2c-0.08-0.08-0.14-0.18-0.18-0.29
				c-0.04-0.11-0.07-0.23-0.07-0.36c0-0.12,0.02-0.24,0.07-0.35c0.04-0.11,0.1-0.21,0.18-0.29c0.08-0.08,0.17-0.15,0.28-0.2
				c0.11-0.05,0.23-0.07,0.35-0.07c0.13,0,0.25,0.02,0.35,0.07c0.11,0.05,0.2,0.11,0.28,0.2c0.08,0.08,0.14,0.18,0.18,0.29
				c0.04,0.11,0.06,0.22,0.06,0.35c0,0.02,0,0.04,0,0.05c0,0.02,0,0.03,0,0.04H8.1c0.01,0.09,0.03,0.18,0.07,0.26
				c0.04,0.08,0.09,0.15,0.14,0.21c0.06,0.06,0.13,0.1,0.2,0.14c0.08,0.03,0.16,0.05,0.24,0.05c0.06,0,0.11-0.01,0.17-0.02
				c0.06-0.02,0.11-0.04,0.16-0.06c0.05-0.03,0.09-0.06,0.13-0.1c0.04-0.04,0.07-0.08,0.09-0.13l0.2,0.05
				c-0.03,0.07-0.07,0.12-0.12,0.18c-0.05,0.05-0.11,0.1-0.17,0.14c-0.07,0.04-0.14,0.07-0.22,0.09
				C8.91,28.74,8.83,28.75,8.74,28.75 M9.39,27.74c-0.01-0.09-0.03-0.18-0.07-0.26c-0.04-0.08-0.08-0.14-0.14-0.2
				c-0.06-0.06-0.12-0.1-0.2-0.13c-0.08-0.03-0.16-0.05-0.24-0.05c-0.09,0-0.17,0.02-0.24,0.05c-0.08,0.03-0.14,0.08-0.2,0.13
				c-0.06,0.06-0.1,0.12-0.14,0.2c-0.04,0.08-0.06,0.16-0.06,0.26H9.39z"/>
			<path class="st0" d="M10.85,27.16c-0.16,0-0.29,0.05-0.41,0.13c-0.11,0.08-0.2,0.19-0.24,0.34v1.1H9.97v-1.76h0.22v0.42
				c0.07-0.14,0.15-0.24,0.26-0.32c0.11-0.08,0.23-0.12,0.36-0.12c0.02,0,0.03,0,0.04,0V27.16z"/>
			<path class="st0" d="M11.95,26.25h0.23v2.07c0,0.07,0.02,0.12,0.05,0.15c0.04,0.04,0.09,0.06,0.15,0.06c0.02,0,0.05,0,0.09-0.01
				c0.03-0.01,0.07-0.02,0.09-0.03l0.04,0.19c-0.04,0.02-0.1,0.03-0.16,0.04c-0.06,0.01-0.12,0.02-0.16,0.02
				c-0.11,0-0.19-0.03-0.25-0.09c-0.06-0.06-0.09-0.14-0.09-0.25V26.25z"/>
			<path class="st0" d="M12.86,26.59h0.23 M13.09,26.59h-0.23v-0.34h0.23V26.59z M12.86,28.72h0.23H12.86z M13.09,28.72h-0.23v-1.76
				h0.23V28.72z"/>
			<path class="st0" d="M13.47,27.83c0-0.12,0.02-0.24,0.06-0.35c0.04-0.11,0.1-0.21,0.18-0.29C13.8,27.11,13.89,27.04,14,27
				c0.11-0.05,0.23-0.07,0.36-0.07c0.17,0,0.31,0.04,0.44,0.11c0.12,0.08,0.22,0.18,0.28,0.31l-0.22,0.07
				c-0.05-0.09-0.12-0.16-0.21-0.21c-0.09-0.05-0.19-0.08-0.3-0.08c-0.09,0-0.17,0.02-0.25,0.05c-0.08,0.04-0.15,0.09-0.2,0.15
				c-0.06,0.06-0.1,0.14-0.14,0.22c-0.03,0.09-0.05,0.18-0.05,0.28c0,0.1,0.02,0.19,0.05,0.28c0.03,0.09,0.08,0.16,0.14,0.23
				c0.06,0.06,0.13,0.11,0.2,0.15c0.08,0.04,0.16,0.06,0.25,0.06c0.06,0,0.11-0.01,0.17-0.02c0.06-0.02,0.11-0.04,0.15-0.07
				c0.05-0.03,0.09-0.06,0.12-0.1c0.03-0.04,0.06-0.07,0.07-0.12l0.23,0.07c-0.02,0.06-0.06,0.12-0.11,0.17
				c-0.05,0.05-0.1,0.1-0.17,0.14c-0.06,0.04-0.14,0.07-0.21,0.09c-0.08,0.02-0.16,0.03-0.24,0.03c-0.13,0-0.25-0.02-0.36-0.07
				c-0.11-0.05-0.2-0.12-0.28-0.2c-0.08-0.08-0.14-0.18-0.18-0.29C13.49,28.08,13.47,27.96,13.47,27.83"/>
			<path class="st0" d="M16.2,28.75c-0.13,0-0.25-0.02-0.35-0.07c-0.11-0.05-0.2-0.12-0.28-0.2c-0.08-0.08-0.14-0.18-0.18-0.29
				c-0.04-0.11-0.07-0.23-0.07-0.36c0-0.12,0.02-0.24,0.07-0.35c0.04-0.11,0.1-0.21,0.18-0.29c0.08-0.08,0.17-0.15,0.28-0.2
				c0.11-0.05,0.23-0.07,0.35-0.07c0.13,0,0.25,0.02,0.35,0.07c0.11,0.05,0.2,0.11,0.28,0.2c0.08,0.08,0.14,0.18,0.18,0.29
				c0.04,0.11,0.06,0.22,0.06,0.35c0,0.02,0,0.04,0,0.05c0,0.02,0,0.03,0,0.04h-1.51c0.01,0.09,0.03,0.18,0.07,0.26
				c0.04,0.08,0.09,0.15,0.14,0.21c0.06,0.06,0.13,0.1,0.2,0.14c0.08,0.03,0.16,0.05,0.24,0.05c0.06,0,0.11-0.01,0.17-0.02
				c0.06-0.02,0.11-0.04,0.16-0.06c0.05-0.03,0.09-0.06,0.13-0.1c0.04-0.04,0.07-0.08,0.09-0.13l0.2,0.05
				c-0.03,0.07-0.07,0.12-0.12,0.18c-0.05,0.05-0.11,0.1-0.17,0.14c-0.07,0.04-0.14,0.07-0.22,0.09
				C16.36,28.74,16.28,28.75,16.2,28.75 M16.85,27.74c-0.01-0.09-0.03-0.18-0.07-0.26c-0.04-0.08-0.08-0.14-0.14-0.2
				c-0.06-0.06-0.12-0.1-0.2-0.13c-0.08-0.03-0.16-0.05-0.24-0.05c-0.09,0-0.17,0.02-0.24,0.05c-0.08,0.03-0.14,0.08-0.2,0.13
				c-0.06,0.06-0.1,0.12-0.14,0.2c-0.04,0.08-0.06,0.16-0.06,0.26H16.85z"/>
			<path class="st0" d="M18.9,28.72h-0.23v-0.98c0-0.21-0.03-0.36-0.09-0.46c-0.06-0.09-0.16-0.14-0.29-0.14
				c-0.07,0-0.14,0.01-0.2,0.04c-0.07,0.02-0.13,0.06-0.19,0.1c-0.06,0.05-0.11,0.1-0.15,0.16c-0.05,0.06-0.08,0.13-0.1,0.2v1.08
				h-0.23v-1.76h0.21v0.4c0.07-0.13,0.18-0.23,0.31-0.31c0.13-0.08,0.28-0.12,0.44-0.12c0.1,0,0.18,0.02,0.25,0.05
				c0.07,0.04,0.12,0.09,0.16,0.15c0.04,0.07,0.07,0.15,0.09,0.24c0.02,0.09,0.03,0.2,0.03,0.31V28.72z"/>
			<path class="st0" d="M19.98,28.75c-0.14,0-0.27-0.02-0.4-0.07c-0.13-0.04-0.24-0.11-0.34-0.2l0.11-0.16
				c0.1,0.08,0.2,0.14,0.3,0.18c0.1,0.04,0.21,0.06,0.33,0.06c0.14,0,0.26-0.03,0.34-0.09c0.08-0.06,0.13-0.14,0.13-0.25
				c0-0.05-0.01-0.09-0.03-0.12c-0.02-0.03-0.06-0.06-0.1-0.09c-0.04-0.02-0.1-0.05-0.17-0.07c-0.07-0.02-0.14-0.04-0.23-0.06
				c-0.1-0.02-0.19-0.05-0.26-0.07c-0.07-0.02-0.14-0.05-0.18-0.08c-0.05-0.03-0.08-0.07-0.11-0.12c-0.02-0.05-0.04-0.1-0.04-0.17
				c0-0.09,0.02-0.17,0.05-0.23c0.04-0.07,0.08-0.12,0.14-0.17c0.06-0.04,0.13-0.08,0.21-0.1c0.08-0.02,0.17-0.03,0.26-0.03
				c0.14,0,0.26,0.02,0.37,0.07c0.11,0.04,0.2,0.1,0.27,0.17L20.5,27.3c-0.07-0.07-0.15-0.12-0.24-0.15
				c-0.09-0.03-0.19-0.05-0.29-0.05c-0.06,0-0.12,0.01-0.17,0.02c-0.05,0.01-0.1,0.03-0.14,0.06c-0.04,0.03-0.07,0.06-0.09,0.1
				c-0.02,0.04-0.03,0.09-0.03,0.15c0,0.05,0.01,0.09,0.02,0.12c0.02,0.03,0.04,0.05,0.08,0.08c0.04,0.02,0.08,0.04,0.14,0.06
				c0.06,0.02,0.12,0.03,0.2,0.05c0.11,0.03,0.21,0.05,0.3,0.08c0.09,0.03,0.16,0.06,0.21,0.09c0.06,0.04,0.1,0.08,0.13,0.13
				c0.03,0.05,0.04,0.12,0.04,0.19c0,0.16-0.06,0.29-0.19,0.39C20.36,28.7,20.19,28.75,19.98,28.75"/>
			<path class="st0" d="M21.8,28.75c-0.13,0-0.25-0.02-0.35-0.07c-0.11-0.05-0.2-0.12-0.28-0.2c-0.08-0.08-0.14-0.18-0.18-0.29
				c-0.04-0.11-0.07-0.23-0.07-0.36c0-0.12,0.02-0.24,0.07-0.35c0.04-0.11,0.11-0.21,0.18-0.29c0.08-0.08,0.17-0.15,0.28-0.2
				c0.11-0.05,0.23-0.07,0.35-0.07c0.13,0,0.25,0.02,0.35,0.07c0.11,0.05,0.2,0.11,0.28,0.2s0.14,0.18,0.18,0.29
				c0.04,0.11,0.06,0.22,0.06,0.35c0,0.02,0,0.04,0,0.05c0,0.02,0,0.03,0,0.04h-1.51c0.01,0.09,0.03,0.18,0.07,0.26
				c0.04,0.08,0.09,0.15,0.14,0.21c0.06,0.06,0.13,0.1,0.2,0.14c0.08,0.03,0.16,0.05,0.24,0.05c0.06,0,0.11-0.01,0.17-0.02
				c0.06-0.02,0.11-0.04,0.16-0.06c0.05-0.03,0.09-0.06,0.13-0.1c0.04-0.04,0.07-0.08,0.09-0.13l0.2,0.05
				c-0.03,0.07-0.07,0.12-0.12,0.18c-0.05,0.05-0.11,0.1-0.17,0.14c-0.07,0.04-0.14,0.07-0.22,0.09
				C21.97,28.74,21.89,28.75,21.8,28.75 M22.45,27.74c-0.01-0.09-0.03-0.18-0.07-0.26c-0.04-0.08-0.08-0.14-0.14-0.2
				c-0.06-0.06-0.12-0.1-0.2-0.13c-0.08-0.03-0.16-0.05-0.24-0.05c-0.09,0-0.17,0.02-0.24,0.05c-0.08,0.03-0.14,0.08-0.2,0.13
				c-0.06,0.06-0.1,0.12-0.14,0.2c-0.03,0.08-0.06,0.16-0.06,0.26H22.45z"/>
			<path class="st0" d="M25.37,28.72h-0.23v-0.98c0-0.21-0.03-0.36-0.09-0.46c-0.06-0.09-0.16-0.14-0.29-0.14
				c-0.07,0-0.14,0.01-0.2,0.04c-0.07,0.02-0.13,0.06-0.19,0.1c-0.06,0.05-0.11,0.1-0.15,0.16c-0.05,0.06-0.08,0.13-0.1,0.2v1.08
				h-0.23v-1.76h0.21v0.4c0.07-0.13,0.18-0.23,0.31-0.31c0.13-0.08,0.28-0.12,0.44-0.12c0.1,0,0.18,0.02,0.25,0.05
				c0.07,0.04,0.12,0.09,0.16,0.15c0.04,0.07,0.07,0.15,0.09,0.24c0.02,0.09,0.03,0.2,0.03,0.31V28.72z"/>
			<path class="st0" d="M26.62,28.75c-0.13,0-0.25-0.02-0.35-0.07c-0.11-0.05-0.2-0.11-0.28-0.2c-0.08-0.08-0.14-0.18-0.18-0.29
				c-0.04-0.11-0.06-0.23-0.06-0.35c0-0.12,0.02-0.24,0.07-0.35c0.04-0.11,0.1-0.21,0.18-0.29c0.08-0.08,0.17-0.15,0.28-0.2
				c0.11-0.05,0.22-0.07,0.35-0.07c0.13,0,0.24,0.02,0.35,0.07c0.11,0.05,0.2,0.12,0.28,0.2c0.08,0.08,0.14,0.18,0.18,0.29
				c0.04,0.11,0.07,0.23,0.07,0.35c0,0.12-0.02,0.24-0.06,0.35c-0.04,0.11-0.1,0.21-0.18,0.29c-0.08,0.08-0.17,0.15-0.28,0.2
				C26.86,28.73,26.74,28.75,26.62,28.75 M25.98,27.84c0,0.1,0.02,0.19,0.05,0.28c0.03,0.08,0.08,0.16,0.14,0.22
				c0.06,0.06,0.13,0.11,0.2,0.15c0.08,0.04,0.16,0.05,0.25,0.05c0.09,0,0.17-0.02,0.25-0.06c0.08-0.04,0.15-0.09,0.2-0.15
				c0.06-0.06,0.11-0.14,0.14-0.23c0.03-0.09,0.05-0.18,0.05-0.28c0-0.1-0.02-0.19-0.05-0.28c-0.03-0.09-0.08-0.16-0.14-0.23
				c-0.06-0.06-0.13-0.11-0.2-0.15c-0.08-0.04-0.16-0.06-0.25-0.06c-0.09,0-0.17,0.02-0.25,0.06c-0.08,0.04-0.14,0.09-0.2,0.15
				c-0.06,0.07-0.1,0.14-0.14,0.23C25.99,27.65,25.98,27.75,25.98,27.84z"/>
			<rect x="27.84" y="28.39" class="st0" width="0.2" height="0.33"/>
			<path class="st0" d="M30.29,27.92c0.15,0.02,0.27,0.09,0.36,0.2c0.09,0.11,0.13,0.25,0.13,0.41c0,0.1-0.02,0.19-0.06,0.28
				c-0.04,0.08-0.09,0.16-0.16,0.22c-0.07,0.06-0.15,0.11-0.25,0.14c-0.1,0.03-0.2,0.05-0.32,0.05c-0.17,0-0.32-0.03-0.45-0.1
				c-0.13-0.07-0.23-0.16-0.29-0.29l0.16-0.15c0.05,0.1,0.12,0.18,0.22,0.24c0.1,0.06,0.22,0.09,0.37,0.09c0.17,0,0.3-0.04,0.4-0.12
				c0.1-0.08,0.15-0.2,0.15-0.35c0-0.16-0.05-0.28-0.15-0.37c-0.1-0.09-0.25-0.14-0.44-0.14h-0.08v-0.2h0.09
				c0.17,0,0.31-0.04,0.4-0.12c0.09-0.08,0.14-0.18,0.14-0.31c0-0.07-0.01-0.13-0.04-0.18c-0.02-0.05-0.06-0.1-0.1-0.13
				c-0.04-0.03-0.1-0.06-0.16-0.08c-0.06-0.02-0.12-0.03-0.19-0.03c-0.13,0-0.24,0.03-0.34,0.09c-0.1,0.06-0.17,0.14-0.22,0.24
				l-0.15-0.14c0.03-0.06,0.07-0.11,0.12-0.16c0.05-0.05,0.11-0.09,0.17-0.12c0.06-0.03,0.13-0.06,0.21-0.08
				c0.08-0.02,0.16-0.03,0.24-0.03c0.1,0,0.2,0.01,0.29,0.04c0.09,0.03,0.16,0.07,0.23,0.12c0.06,0.05,0.11,0.12,0.15,0.19
				c0.04,0.07,0.05,0.16,0.05,0.25c0,0.07-0.01,0.13-0.03,0.19s-0.05,0.12-0.09,0.17c-0.04,0.05-0.09,0.09-0.14,0.12
				C30.42,27.89,30.36,27.91,30.29,27.92"/>
			<path class="st0" d="M32.1,27.92c0.15,0.02,0.27,0.09,0.36,0.2c0.09,0.11,0.13,0.25,0.13,0.41c0,0.1-0.02,0.19-0.06,0.28
				c-0.04,0.08-0.09,0.16-0.16,0.22c-0.07,0.06-0.15,0.11-0.25,0.14c-0.1,0.03-0.2,0.05-0.32,0.05c-0.17,0-0.32-0.03-0.45-0.1
				c-0.13-0.07-0.23-0.16-0.29-0.29l0.16-0.15c0.05,0.1,0.12,0.18,0.22,0.24c0.1,0.06,0.22,0.09,0.37,0.09c0.17,0,0.3-0.04,0.4-0.12
				c0.1-0.08,0.15-0.2,0.15-0.35c0-0.16-0.05-0.28-0.15-0.37c-0.1-0.09-0.25-0.14-0.44-0.14h-0.08v-0.2h0.09
				c0.17,0,0.31-0.04,0.4-0.12c0.09-0.08,0.14-0.18,0.14-0.31c0-0.07-0.01-0.13-0.04-0.18c-0.02-0.05-0.06-0.1-0.1-0.13
				c-0.04-0.03-0.1-0.06-0.16-0.08c-0.06-0.02-0.12-0.03-0.19-0.03c-0.13,0-0.24,0.03-0.34,0.09c-0.1,0.06-0.17,0.14-0.22,0.24
				l-0.15-0.14c0.03-0.06,0.07-0.11,0.11-0.16c0.05-0.05,0.11-0.09,0.17-0.12c0.06-0.03,0.13-0.06,0.21-0.08
				c0.08-0.02,0.16-0.03,0.24-0.03c0.1,0,0.2,0.01,0.29,0.04c0.09,0.03,0.16,0.07,0.22,0.12c0.06,0.05,0.11,0.12,0.15,0.19
				c0.03,0.07,0.05,0.16,0.05,0.25c0,0.07-0.01,0.13-0.03,0.19c-0.02,0.06-0.05,0.12-0.09,0.17c-0.04,0.05-0.09,0.09-0.14,0.12
				C32.23,27.89,32.16,27.91,32.1,27.92"/>
			<path class="st0" d="M34.63,27.93c0,0.12-0.02,0.22-0.07,0.32c-0.04,0.1-0.1,0.19-0.18,0.26c-0.08,0.07-0.17,0.13-0.27,0.18
				c-0.1,0.04-0.22,0.06-0.34,0.06c-0.13,0-0.24-0.02-0.35-0.07c-0.11-0.05-0.2-0.11-0.27-0.2c-0.08-0.09-0.14-0.19-0.18-0.32
				c-0.04-0.13-0.06-0.27-0.06-0.42c0-0.24,0.02-0.46,0.06-0.64c0.04-0.18,0.1-0.33,0.18-0.45c0.08-0.12,0.17-0.21,0.28-0.27
				c0.11-0.06,0.23-0.09,0.36-0.09c0.16,0,0.3,0.04,0.43,0.12c0.13,0.08,0.22,0.19,0.29,0.33l-0.15,0.14
				c-0.05-0.12-0.12-0.21-0.22-0.28c-0.1-0.07-0.22-0.1-0.34-0.1c-0.1,0-0.19,0.02-0.27,0.07c-0.08,0.05-0.15,0.12-0.21,0.2
				c-0.06,0.09-0.1,0.2-0.14,0.33c-0.03,0.13-0.05,0.28-0.05,0.44c0.05-0.13,0.13-0.24,0.26-0.32c0.12-0.08,0.26-0.12,0.41-0.12
				c0.11,0,0.22,0.02,0.32,0.06c0.1,0.04,0.19,0.1,0.26,0.17c0.07,0.07,0.13,0.16,0.18,0.26C34.61,27.71,34.63,27.81,34.63,27.93
				 M33.79,28.55c0.09,0,0.17-0.02,0.24-0.05c0.08-0.03,0.14-0.08,0.2-0.13c0.06-0.06,0.1-0.12,0.14-0.2
				c0.03-0.08,0.05-0.16,0.05-0.24c0-0.09-0.02-0.17-0.05-0.24c-0.03-0.08-0.08-0.14-0.14-0.2c-0.06-0.06-0.12-0.1-0.2-0.13
				c-0.08-0.03-0.16-0.05-0.24-0.05c-0.09,0-0.17,0.02-0.24,0.05c-0.08,0.03-0.14,0.08-0.2,0.13c-0.06,0.06-0.1,0.12-0.14,0.2
				c-0.03,0.08-0.05,0.16-0.05,0.24c0,0.09,0.02,0.17,0.05,0.24c0.03,0.07,0.08,0.14,0.14,0.2c0.06,0.06,0.12,0.1,0.2,0.14
				C33.62,28.53,33.7,28.55,33.79,28.55z"/>
			<path class="st0" d="M36.67,27.73c0,0.15-0.02,0.29-0.06,0.41c-0.04,0.13-0.1,0.23-0.18,0.32c-0.08,0.09-0.17,0.16-0.27,0.21
				c-0.1,0.05-0.22,0.08-0.34,0.08c-0.12,0-0.23-0.03-0.34-0.08c-0.1-0.05-0.19-0.12-0.27-0.21c-0.08-0.09-0.13-0.2-0.18-0.32
				c-0.04-0.13-0.06-0.26-0.06-0.41c0-0.15,0.02-0.29,0.06-0.41c0.04-0.13,0.1-0.23,0.18-0.32c0.08-0.09,0.17-0.16,0.27-0.22
				c0.1-0.05,0.22-0.08,0.34-0.08c0.12,0,0.23,0.03,0.34,0.08c0.1,0.05,0.19,0.12,0.27,0.22c0.08,0.09,0.13,0.2,0.18,0.32
				C36.65,27.44,36.67,27.58,36.67,27.73 M36.43,27.73c0-0.12-0.02-0.23-0.05-0.33c-0.03-0.1-0.07-0.18-0.13-0.26
				c-0.05-0.07-0.12-0.13-0.19-0.17c-0.08-0.04-0.16-0.06-0.25-0.06c-0.09,0-0.18,0.02-0.25,0.06c-0.08,0.04-0.14,0.09-0.19,0.17
				c-0.05,0.07-0.1,0.16-0.13,0.26c-0.03,0.1-0.05,0.21-0.05,0.33c0,0.12,0.02,0.23,0.05,0.33c0.03,0.1,0.07,0.18,0.13,0.26
				c0.05,0.07,0.12,0.13,0.19,0.16c0.08,0.04,0.16,0.06,0.25,0.06c0.09,0,0.17-0.02,0.25-0.06c0.08-0.04,0.14-0.09,0.19-0.16
				c0.05-0.07,0.1-0.16,0.13-0.26C36.42,27.96,36.43,27.85,36.43,27.73z"/>
			<polygon class="st0" points="38.18,26.96 36.88,26.96 36.88,26.74 38.54,26.74 37.33,29.15 37.07,29.15 			"/>
			<path class="st0" d="M39.95,28.51v0.21h-1.15v-0.21h0.48v-1.45c-0.02,0.03-0.05,0.06-0.09,0.09c-0.04,0.03-0.09,0.06-0.15,0.09
				c-0.05,0.03-0.11,0.05-0.16,0.07c-0.06,0.02-0.11,0.03-0.15,0.03v-0.22c0.05,0,0.11-0.01,0.17-0.04c0.06-0.03,0.12-0.06,0.18-0.1
				c0.06-0.04,0.1-0.07,0.14-0.11c0.04-0.03,0.06-0.06,0.06-0.07h0.24v1.72H39.95z"/>
			<path class="st0" d="M40.17,27.5c0-0.14,0.03-0.29,0.08-0.43c0.05-0.14,0.13-0.27,0.22-0.38c0.1-0.11,0.22-0.2,0.36-0.28
				c0.14-0.07,0.3-0.11,0.48-0.11c0.21,0,0.4,0.05,0.55,0.15c0.15,0.1,0.26,0.22,0.34,0.38l-0.19,0.12
				c-0.04-0.08-0.08-0.15-0.14-0.2c-0.06-0.05-0.11-0.1-0.18-0.13c-0.06-0.03-0.13-0.06-0.2-0.07c-0.07-0.01-0.13-0.02-0.2-0.02
				c-0.14,0-0.27,0.03-0.38,0.09c-0.11,0.06-0.2,0.14-0.28,0.23c-0.08,0.09-0.13,0.2-0.17,0.32c-0.04,0.12-0.06,0.24-0.06,0.36
				c0,0.13,0.02,0.26,0.07,0.38c0.05,0.12,0.11,0.23,0.19,0.32c0.08,0.09,0.17,0.17,0.28,0.22c0.11,0.06,0.23,0.08,0.36,0.08
				c0.07,0,0.14-0.01,0.21-0.03c0.07-0.02,0.14-0.04,0.21-0.08c0.07-0.04,0.13-0.08,0.18-0.14c0.06-0.06,0.1-0.12,0.14-0.2l0.2,0.1
				c-0.04,0.09-0.09,0.17-0.16,0.24c-0.07,0.07-0.15,0.13-0.23,0.17c-0.09,0.05-0.18,0.08-0.27,0.11c-0.1,0.02-0.19,0.04-0.28,0.04
				c-0.16,0-0.32-0.04-0.45-0.11c-0.14-0.07-0.26-0.17-0.36-0.28c-0.1-0.12-0.18-0.25-0.23-0.4C40.2,27.8,40.17,27.65,40.17,27.5"/>
		</g>
		<g>
			<g>
				<g>
					<polygon class="st1" points="7.93,24.63 0.18,24.63 13.08,0.41 22.83,18.89 20.29,18.89 15.67,10 					"/>
					<polygon class="st2" points="19.79,24.63 13.58,24.63 23.92,5.21 34.16,24.63 32.13,24.63 26,12.9 					"/>
					<polygon class="st2" points="80.24,24.68 75.95,24.68 71.42,18.68 69.73,20.41 69.73,24.68 66.3,24.68 66.3,9.67 69.73,9.67 
						69.73,15.59 75.52,9.67 80.23,9.67 73.85,16.2 					"/>
					<path class="st2" d="M65.34,24.68h-4.77l-5.32-5.79l0-0.01h-0.43v5.8h-3.43V9.67h9.33c1.27,0,2.36,0.45,3.26,1.35
						c0.9,0.9,1.35,1.99,1.35,3.26c0,1.27-0.45,2.36-1.35,3.26c-0.9,0.9-1.98,1.35-3.25,1.35l-0.39-0.01h-0.38L65.34,24.68
						L65.34,24.68z M56.75,15.46h3.59h0.38c0.33,0,0.61-0.11,0.84-0.34c0.23-0.23,0.34-0.51,0.34-0.84c0-0.33-0.11-0.61-0.34-0.84
						c-0.23-0.23-0.51-0.34-0.84-0.34h-5.9v2.36H56.75z"/>
					<path class="st2" d="M50.6,24.68h-3.9l-1.1-2.5h-6.13l-1.11,2.5h-3.85l6.65-15.01h2.79L50.6,24.68L50.6,24.68z M44.38,19.38
						l-1.82-4.17l-1.85,4.17H44.38z"/>
					<path class="st3" d="M83.86,15.45c0-2.67,2.17-4.84,4.84-4.84c2.67,0,4.84,2.17,4.84,4.84c0,0.38-0.05,0.75-0.13,1.11L97.57,18
						c0.23-0.81,0.37-1.67,0.37-2.55c0-5.1-4.13-9.23-9.23-9.23c-5.1,0-9.23,4.13-9.23,9.23c0,5.1,4.13,9.23,9.23,9.23
						c0.37,0,0.73-0.03,1.08-0.07l-1.51-4.34C85.8,20.06,83.86,17.98,83.86,15.45z"/>
					<g>
						<path class="st1" d="M88,15.92l8.47,2.95l-2.35,0.78l5.87,5.7l-2.39,2.39l-5.87-5.7l-0.78,2.35L88,15.92z"/>
					</g>
					<polygon class="st4" points="19.79,24.63 26,12.9 32.13,24.63 					"/>
					<polygon class="st4" points="15.67,10 18.49,15.41 13.58,24.63 7.93,24.63 					"/>
				</g>
				<g>
					<path class="st3" d="M58.26,27.6v8.08h-1.87v-3.31h-3.22v3.31h-1.87V27.6h1.87v3.13h3.22V27.6H58.26z"/>
					<path class="st3" d="M63.34,35.75c-0.6,0-1.15-0.12-1.64-0.35c-0.49-0.23-0.91-0.54-1.26-0.93c-0.35-0.38-0.62-0.82-0.81-1.31
						c-0.19-0.49-0.29-1-0.29-1.52c0-0.53,0.1-1.04,0.3-1.54c0.2-0.49,0.48-0.93,0.84-1.3c0.36-0.38,0.79-0.67,1.28-0.9
						c0.49-0.22,1.03-0.34,1.62-0.34c0.6,0,1.15,0.12,1.64,0.35c0.49,0.24,0.91,0.55,1.26,0.93c0.35,0.39,0.62,0.83,0.81,1.32
						c0.19,0.49,0.28,0.99,0.28,1.5c0,0.53-0.1,1.04-0.3,1.54c-0.2,0.49-0.48,0.93-0.84,1.3c-0.36,0.38-0.78,0.68-1.27,0.9
						C64.47,35.64,63.93,35.75,63.34,35.75z M61.24,31.65c0,0.31,0.05,0.61,0.14,0.9c0.09,0.29,0.23,0.55,0.4,0.78
						c0.18,0.23,0.4,0.41,0.67,0.55c0.27,0.14,0.57,0.2,0.91,0.2c0.36,0,0.67-0.07,0.93-0.22c0.27-0.14,0.49-0.33,0.66-0.56
						c0.17-0.23,0.31-0.49,0.39-0.78c0.09-0.29,0.13-0.59,0.13-0.89c0-0.31-0.05-0.61-0.14-0.9c-0.09-0.29-0.23-0.55-0.41-0.77
						c-0.18-0.22-0.4-0.4-0.67-0.53c-0.26-0.13-0.56-0.2-0.9-0.2c-0.36,0-0.67,0.07-0.93,0.21c-0.26,0.14-0.48,0.32-0.66,0.55
						c-0.18,0.23-0.31,0.49-0.4,0.78C61.28,31.05,61.24,31.35,61.24,31.65z"/>
					<path class="st3" d="M74.82,35.68v-4.83l-1.75,3.52h-1l-1.75-3.52v4.83h-1.87V27.6h2.02l2.09,4.22l2.1-4.22h2.01v8.08H74.82z"
						/>
					<path class="st3" d="M83.91,34.04v1.64h-5.68V27.6h5.57v1.64H80.1v1.57h3.19v1.51H80.1v1.72H83.91z"/>
					<path class="st3" d="M89.73,29.97c-0.02-0.03-0.1-0.09-0.24-0.17c-0.14-0.08-0.31-0.17-0.51-0.26
						c-0.2-0.09-0.43-0.17-0.67-0.24c-0.24-0.07-0.49-0.1-0.73-0.1c-0.67,0-1,0.22-1,0.67c0,0.14,0.04,0.25,0.11,0.34
						c0.07,0.09,0.18,0.17,0.32,0.24c0.14,0.07,0.32,0.14,0.53,0.2c0.21,0.06,0.46,0.13,0.74,0.2c0.39,0.11,0.74,0.22,1.05,0.35
						c0.31,0.13,0.57,0.28,0.79,0.47c0.22,0.19,0.38,0.41,0.5,0.68c0.12,0.27,0.18,0.58,0.18,0.96c0,0.46-0.09,0.84-0.26,1.15
						c-0.17,0.31-0.4,0.57-0.68,0.76c-0.28,0.19-0.6,0.33-0.97,0.42s-0.74,0.13-1.13,0.13c-0.3,0-0.6-0.02-0.91-0.07
						c-0.31-0.05-0.61-0.11-0.91-0.2c-0.3-0.09-0.58-0.19-0.86-0.31c-0.28-0.12-0.53-0.26-0.77-0.42l0.82-1.63
						c0.03,0.04,0.13,0.11,0.3,0.22c0.17,0.11,0.37,0.21,0.62,0.32c0.25,0.11,0.52,0.2,0.82,0.28c0.3,0.08,0.61,0.13,0.92,0.13
						c0.66,0,0.99-0.2,0.99-0.6c0-0.15-0.05-0.28-0.15-0.38c-0.1-0.1-0.24-0.19-0.41-0.27c-0.17-0.08-0.38-0.15-0.62-0.22
						c-0.24-0.07-0.5-0.14-0.78-0.23c-0.37-0.11-0.69-0.24-0.97-0.37c-0.27-0.13-0.5-0.29-0.68-0.46c-0.18-0.17-0.31-0.38-0.4-0.6
						c-0.09-0.23-0.13-0.49-0.13-0.8c0-0.42,0.08-0.8,0.24-1.13c0.16-0.33,0.38-0.6,0.65-0.82c0.27-0.22,0.59-0.39,0.95-0.51
						c0.36-0.11,0.74-0.17,1.14-0.17c0.28,0,0.56,0.03,0.83,0.08c0.27,0.05,0.53,0.12,0.78,0.2c0.25,0.08,0.48,0.18,0.7,0.28
						c0.22,0.11,0.42,0.21,0.6,0.32L89.73,29.97z"/>
				</g>
			</g>
			<g>
				<path class="st5" d="M94.73,2.88V2.86c0-1.43,1.17-2.64,2.64-2.64S100,1.42,100,2.85v0.01c0,1.43-1.17,2.64-2.64,2.64
					C95.88,5.5,94.73,4.31,94.73,2.88z M99.72,2.86V2.85c0-1.3-1.01-2.36-2.35-2.36C96.02,0.49,95,1.56,95,2.86v0.01
					c0,1.3,1.01,2.36,2.35,2.36C98.7,5.24,99.72,4.17,99.72,2.86z M96.3,1.41h1.23c0.36,0,0.66,0.11,0.84,0.29
					c0.15,0.15,0.23,0.34,0.23,0.58V2.3c0,0.44-0.26,0.72-0.64,0.83l0.74,1.04h-0.63L97.4,3.21h-0.58v0.95H96.3V1.41z M97.51,2.76
					c0.34,0,0.55-0.17,0.55-0.43V2.31c0-0.28-0.2-0.43-0.55-0.43h-0.68v0.87H97.51z"/>
			</g>
		</g>
	</g>
</g>
</svg>
